<mxfile host="app.diagrams.net" agent="Mozilla/5.0 (Windows NT 10.0; Win64; x64) AppleWebKit/537.36 (KHTML, like Gecko) Chrome/129.0.0.0 Safari/537.36" version="24.7.16">
  <diagram name="Page-1" id="13e1069c-82ec-6db2-03f1-153e76fe0fe0">
    <mxGraphModel dx="603" dy="703" grid="1" gridSize="10" guides="1" tooltips="1" connect="1" arrows="1" fold="1" page="1" pageScale="1" pageWidth="1100" pageHeight="850" background="none" math="0" shadow="0">
      <root>
        <mxCell id="0" />
        <mxCell id="1" parent="0" />
        <mxCell id="OIqzEtx4Gdc3xFpB12HC-1" value="frame" style="shape=umlFrame;whiteSpace=wrap;html=1;pointerEvents=0;" vertex="1" parent="1">
          <mxGeometry x="30" y="20" width="590" height="470" as="geometry" />
        </mxCell>
        <mxCell id="OIqzEtx4Gdc3xFpB12HC-2" value="User: Buyer" style="shape=umlLifeline;perimeter=lifelinePerimeter;whiteSpace=wrap;html=1;container=1;dropTarget=0;collapsible=0;recursiveResize=0;outlineConnect=0;portConstraint=eastwest;newEdgeStyle={&quot;curved&quot;:0,&quot;rounded&quot;:0};" vertex="1" parent="1">
          <mxGeometry x="120" y="70" width="100" height="300" as="geometry" />
        </mxCell>
        <mxCell id="OIqzEtx4Gdc3xFpB12HC-26" value="" style="html=1;points=[[0,0,0,0,5],[0,1,0,0,-5],[1,0,0,0,5],[1,1,0,0,-5]];perimeter=orthogonalPerimeter;outlineConnect=0;targetShapes=umlLifeline;portConstraint=eastwest;newEdgeStyle={&quot;curved&quot;:0,&quot;rounded&quot;:0};" vertex="1" parent="OIqzEtx4Gdc3xFpB12HC-2">
          <mxGeometry x="45" y="55" width="10" height="235" as="geometry" />
        </mxCell>
        <mxCell id="OIqzEtx4Gdc3xFpB12HC-4" value="Shopping Cart" style="shape=umlLifeline;perimeter=lifelinePerimeter;whiteSpace=wrap;html=1;container=1;dropTarget=0;collapsible=0;recursiveResize=0;outlineConnect=0;portConstraint=eastwest;newEdgeStyle={&quot;curved&quot;:0,&quot;rounded&quot;:0};" vertex="1" parent="1">
          <mxGeometry x="275" y="70" width="100" height="300" as="geometry" />
        </mxCell>
        <mxCell id="OIqzEtx4Gdc3xFpB12HC-17" value="" style="html=1;points=[[0,0,0,0,5],[0,1,0,0,-5],[1,0,0,0,5],[1,1,0,0,-5]];perimeter=orthogonalPerimeter;outlineConnect=0;targetShapes=umlLifeline;portConstraint=eastwest;newEdgeStyle={&quot;curved&quot;:0,&quot;rounded&quot;:0};" vertex="1" parent="OIqzEtx4Gdc3xFpB12HC-4">
          <mxGeometry x="45" y="80" width="10" height="170" as="geometry" />
        </mxCell>
        <mxCell id="OIqzEtx4Gdc3xFpB12HC-18" value="updateTotal" style="html=1;align=left;spacingLeft=2;endArrow=block;rounded=0;edgeStyle=orthogonalEdgeStyle;curved=0;rounded=0;" edge="1" target="OIqzEtx4Gdc3xFpB12HC-17" parent="OIqzEtx4Gdc3xFpB12HC-4">
          <mxGeometry relative="1" as="geometry">
            <mxPoint x="50" y="85" as="sourcePoint" />
            <Array as="points">
              <mxPoint x="80" y="115" />
            </Array>
          </mxGeometry>
        </mxCell>
        <mxCell id="OIqzEtx4Gdc3xFpB12HC-5" value="Database" style="shape=umlLifeline;perimeter=lifelinePerimeter;whiteSpace=wrap;html=1;container=1;dropTarget=0;collapsible=0;recursiveResize=0;outlineConnect=0;portConstraint=eastwest;newEdgeStyle={&quot;curved&quot;:0,&quot;rounded&quot;:0};" vertex="1" parent="1">
          <mxGeometry x="450" y="70" width="100" height="313" as="geometry" />
        </mxCell>
        <mxCell id="OIqzEtx4Gdc3xFpB12HC-36" value="" style="html=1;points=[[0,0,0,0,5],[0,1,0,0,-5],[1,0,0,0,5],[1,1,0,0,-5]];perimeter=orthogonalPerimeter;outlineConnect=0;targetShapes=umlLifeline;portConstraint=eastwest;newEdgeStyle={&quot;curved&quot;:0,&quot;rounded&quot;:0};" vertex="1" parent="OIqzEtx4Gdc3xFpB12HC-5">
          <mxGeometry x="45" y="220" width="10" height="70" as="geometry" />
        </mxCell>
        <mxCell id="OIqzEtx4Gdc3xFpB12HC-12" value="" style="edgeStyle=elbowEdgeStyle;fontSize=12;html=1;endArrow=blockThin;endFill=1;rounded=0;entryX=0.4;entryY=0.267;entryDx=0;entryDy=0;entryPerimeter=0;elbow=vertical;" edge="1" parent="1">
          <mxGeometry width="160" relative="1" as="geometry">
            <mxPoint x="173" y="152" as="sourcePoint" />
            <mxPoint x="318" y="152.10000000000014" as="targetPoint" />
          </mxGeometry>
        </mxCell>
        <mxCell id="OIqzEtx4Gdc3xFpB12HC-15" value="updateCart" style="text;html=1;align=center;verticalAlign=middle;resizable=0;points=[];autosize=1;strokeColor=none;fillColor=none;" vertex="1" parent="1">
          <mxGeometry x="203" y="125" width="80" height="30" as="geometry" />
        </mxCell>
        <mxCell id="OIqzEtx4Gdc3xFpB12HC-25" value="emptyCart message" style="html=1;verticalAlign=bottom;endArrow=open;dashed=1;endSize=8;curved=0;rounded=0;" edge="1" parent="1">
          <mxGeometry relative="1" as="geometry">
            <mxPoint x="324.5" y="214.45999999999992" as="sourcePoint" />
            <mxPoint x="168" y="214.46" as="targetPoint" />
          </mxGeometry>
        </mxCell>
        <mxCell id="OIqzEtx4Gdc3xFpB12HC-28" value="" style="edgeStyle=elbowEdgeStyle;fontSize=12;html=1;endArrow=blockThin;endFill=1;rounded=0;entryX=0.524;entryY=0.569;entryDx=0;entryDy=0;entryPerimeter=0;elbow=vertical;" edge="1" parent="1">
          <mxGeometry width="160" relative="1" as="geometry">
            <mxPoint x="318" y="249" as="sourcePoint" />
            <mxPoint x="172.39999999999998" y="249.69999999999993" as="targetPoint" />
          </mxGeometry>
        </mxCell>
        <mxCell id="OIqzEtx4Gdc3xFpB12HC-29" value="showTotal" style="text;html=1;align=center;verticalAlign=middle;resizable=0;points=[];autosize=1;strokeColor=none;fillColor=none;" vertex="1" parent="1">
          <mxGeometry x="200" y="228" width="80" height="30" as="geometry" />
        </mxCell>
        <mxCell id="OIqzEtx4Gdc3xFpB12HC-31" value="" style="edgeStyle=elbowEdgeStyle;fontSize=12;html=1;endArrow=blockThin;endFill=1;rounded=0;elbow=vertical;" edge="1" parent="1">
          <mxGeometry width="160" relative="1" as="geometry">
            <mxPoint x="180" y="280" as="sourcePoint" />
            <mxPoint x="320" y="280" as="targetPoint" />
          </mxGeometry>
        </mxCell>
        <mxCell id="OIqzEtx4Gdc3xFpB12HC-32" value="payment" style="edgeLabel;html=1;align=center;verticalAlign=middle;resizable=0;points=[];" vertex="1" connectable="0" parent="OIqzEtx4Gdc3xFpB12HC-31">
          <mxGeometry x="-0.1711" y="-14" relative="1" as="geometry">
            <mxPoint x="4" y="-24" as="offset" />
          </mxGeometry>
        </mxCell>
        <mxCell id="OIqzEtx4Gdc3xFpB12HC-33" value="" style="edgeStyle=elbowEdgeStyle;fontSize=12;html=1;endArrow=blockThin;endFill=1;rounded=0;elbow=horizontal;entryX=0.526;entryY=0.733;entryDx=0;entryDy=0;entryPerimeter=0;" edge="1" parent="1" target="OIqzEtx4Gdc3xFpB12HC-5">
          <mxGeometry width="160" relative="1" as="geometry">
            <mxPoint x="330" y="290" as="sourcePoint" />
            <mxPoint x="470" y="290" as="targetPoint" />
          </mxGeometry>
        </mxCell>
        <mxCell id="OIqzEtx4Gdc3xFpB12HC-34" value="checkOut" style="edgeLabel;html=1;align=center;verticalAlign=middle;resizable=0;points=[];" vertex="1" connectable="0" parent="OIqzEtx4Gdc3xFpB12HC-33">
          <mxGeometry x="-0.1711" y="-14" relative="1" as="geometry">
            <mxPoint x="4" y="-24" as="offset" />
          </mxGeometry>
        </mxCell>
        <mxCell id="OIqzEtx4Gdc3xFpB12HC-35" value="" style="edgeStyle=elbowEdgeStyle;fontSize=12;html=1;endArrow=blockThin;endFill=1;rounded=0;" edge="1" parent="1">
          <mxGeometry width="160" relative="1" as="geometry">
            <mxPoint x="490" y="349" as="sourcePoint" />
            <mxPoint x="174" y="349" as="targetPoint" />
            <Array as="points" />
          </mxGeometry>
        </mxCell>
        <mxCell id="OIqzEtx4Gdc3xFpB12HC-38" value="purchaseSuccess" style="text;html=1;align=center;verticalAlign=middle;resizable=0;points=[];autosize=1;strokeColor=none;fillColor=none;" vertex="1" parent="1">
          <mxGeometry x="262" y="327" width="120" height="30" as="geometry" />
        </mxCell>
        <mxCell id="OIqzEtx4Gdc3xFpB12HC-40" value="paymentError" style="html=1;verticalAlign=bottom;endArrow=open;dashed=1;endSize=8;curved=0;rounded=0;" edge="1" parent="1" source="OIqzEtx4Gdc3xFpB12HC-5">
          <mxGeometry relative="1" as="geometry">
            <mxPoint x="410" y="320" as="sourcePoint" />
            <mxPoint x="330" y="320" as="targetPoint" />
          </mxGeometry>
        </mxCell>
        <mxCell id="OIqzEtx4Gdc3xFpB12HC-43" value="paymentError message" style="html=1;verticalAlign=bottom;endArrow=open;dashed=1;endSize=8;curved=0;rounded=0;" edge="1" parent="1">
          <mxGeometry relative="1" as="geometry">
            <mxPoint x="330" y="320" as="sourcePoint" />
            <mxPoint x="180" y="320" as="targetPoint" />
          </mxGeometry>
        </mxCell>
      </root>
    </mxGraphModel>
  </diagram>
</mxfile>
